<mxfile host="app.diagrams.net" modified="2020-10-20T05:02:07.344Z" agent="5.0 (Windows NT 10.0; Win64; x64) AppleWebKit/537.36 (KHTML, like Gecko) Chrome/86.0.4240.75 Safari/537.36" etag="v1h0PsfviGIcVXcCcN1g" version="13.8.0" type="github">
  <diagram id="C5RBs43oDa-KdzZeNtuy" name="Page-1">
    <mxGraphModel dx="1038" dy="548" grid="1" gridSize="10" guides="1" tooltips="1" connect="1" arrows="1" fold="1" page="1" pageScale="1" pageWidth="827" pageHeight="1169" math="0" shadow="0">
      <root>
        <mxCell id="WIyWlLk6GJQsqaUBKTNV-0" />
        <mxCell id="WIyWlLk6GJQsqaUBKTNV-1" parent="WIyWlLk6GJQsqaUBKTNV-0" />
        <mxCell id="FpBlLSeG_lScWDRadJ-Q-0" value="" style="shape=image;verticalLabelPosition=bottom;labelBackgroundColor=#ffffff;verticalAlign=top;aspect=fixed;imageAspect=0;image=data:image/png,iVBORw0KGgoAAAANSUhEUgAAAgkAAAFJCAYAAAAR0r4JAAAACXBIWXMAAA9h&#xa;AAAPYQGoP6dpAAAgAElEQVR4Xu2dCfhtU/3G32tOhkyROTeSGzJTrszzrDRR&#xa;EhIh8zyWqSiFDBmvOZEh80wiuZLxkjlCpgy5+OP+n8+v785xnGGf89vnnD28&#xa;63nO8xvO3muv9a51zvdd33GE3IyAESg6AstLOk7Sp4o+EY+/IwSuk7RRR3f4&#xa;YiPQIQIjOrzelxsBI5A/BL4iaRlJO+dvaB5RDxH4h6Q5eti/uzYCMknwJjAC&#xa;xUfAJKH4a9jNDEwSukHN93SEgElCR3D5YiOQSwRMEnK5LD0flElCzyH2A0wS&#xa;vAeMQPERMEko/hp2MwOThG5Q8z0dIWCS0BFcvtgI5BIBk4RcLkvPB2WS0HOI&#xa;/QCTBO8BI1B8BEwSir+G3czAJKEb1HxPRwiYJHQEly82ArlEwCQhl8vS80GZ&#xa;JPQcYj/AJMF7wAgUH4EykoSZJB0gaRNJU8YSvSJpH0n8/Jik8yS9Xbd8H5e0&#xa;lqRJJP1W0rvFX96mMzBJKPHi5mVqJgl5WQmPwwh0j0BZSQJ5H26QRNKgRNjz&#xa;nTWFNBS+PT4IxNSSJgrywM+14/9XSHpP0quS3uke3tzeaZKQ26Upz8BMEsqz&#xa;lp5JdRGoEklAqwAJQJNwlaRvSFpXEkThWEkXSFo/kktNIwmNxM8lXVtCrYJJ&#xa;QnU/832buUlC36D2g4xAzxAoK0nYQ9Ibkh4IjcA4SU9IWjNIwuOSlpB0uqS3&#xa;IkXx5ZK+JWn+MFesIGm+IAqv92wFBtOxScJgcK/UU00SKrXcnmxJESgrSdhb&#xa;0sySng2ScL2kP0paI0jCbZJWlDSVpAmSzpb0mqQNJeGbcGqQCFJWHy/JJKGk&#xa;HwBPq3cImCT0Dlv3bAT6hUBZSUIjn4RacwOOi3NJ+rKkGcNH4XeSvhiOi7y/&#xa;dJgeTBL6tRv9nFIhYJJQquX0ZCqKQFVJwiOhUfhTODMeJOkISUuZJFT0k+Bp&#xa;Z46ASULmkLpDI9B3BKpKEm6StLmklSKaYS9Jt4Y5ghBIaxL6vhX9wLIhYJJQ&#xa;thX1fKqIQBlJAqGMmBYIXawNX+Q7a/IIgSRHAtfw4v8vRwQD79NwZpxU0mSS&#xa;3gy/hTLtDzsulmk1czoXk4ScLoyHZQQ6QKCMJKGD6Vf2UpOEyi59/yZuktA/&#xa;rP0kI9ArBEwSeoVsvvs1Scj3+pRidCYJpVhGT6LiCJgkVHMDJCRh4kga9X9h&#xa;ciEc1M0IZIKASUImMLoTIzBQBEwSBgr/wB6ekIRZJH03ckOQhXJs+GAMbGB+&#xa;cHkQMEkoz1p6JtVFwCShmmufkIRPS9pJ0iclPSPpJUm3xMtahWrujcxmbZKQ&#xa;GZTuyAgMDAGThIFBP9AHJySBjJPbh6nhDkmjJUEciP64WBJ5JNyMQFcImCR0&#xa;BZtvMgK5QoCCR4fGKTJXA/NgeooAmoNFowLmNvHzhEgkNXeQhcWiCuaZku7u&#xa;6WjceSkRMEko5bJ6UhVDgFoFa0W2wYpNvdLTpZgVGgPa1+L3kyW9EP+jUuZs&#xa;klaNGhePRg0LCmO5GYFUCJgkpILJFxmBXCNgc0Oul6dng6sNgVw+alicJYl0&#xa;1bWN7JOzR1ltyOQ1Ja2K2TOgq9yxSUKVV99zLwsCJgllWcnO5lFLEj4n6duS&#xa;KHBFdEOzNq+krSQtJ+kMSWMiM2VtVsvORuGrS42ASUKpl9eTqwgCJgkVWei6&#xa;adaShBkk7SPpUkmU1G7XFpb0PUkLRI2LU6Icd7v7/H7FEDBJqNiCe7qlRMAk&#xa;oZTL2nZStSSBWhc/k3SbpN+nFPjzBLEgTHI751Zoi3clLzBJqOSye9IlQ8Ak&#xa;oWQLmnI69WmZfxSmAyIZ3mjRB0WvlpG0UUREHCfpgZTP9GUVQ8AkoWIL7umW&#xa;EgGThFIua9tJ1ZMEhP78kk6siXCo74TsjOtJWjDKal8h6d9tn+QLKouASUJl&#xa;l94TLxECWZAEEvIsEQl57pX0fgb44HH/XmT+q+0O+/nSku6T9FQJSzhnAF2q&#xa;LupJwlIRCnlU4FrfCc6NW0ZZbRwcSbLkjIypoK7uRSYJ1V17z7w8CGRBEhDc&#xa;G0h6OkLkEO7DbTjGUXQID/raNrmkGeME+5/hPqTC99eTBHIiHBKJtcbV4IJ5&#xa;AcL2w4h8wBzxZEq/hQrD66mDgEmC94ERKD4CzUgCn+/5IskS2fk4YV4gCUJw&#xa;eITBXSZpD0mT1ZCEGyVtEc5sVBiEPBB7v6ak9QOu0+N+BM5jYd/+aWR9PELS&#xa;85KOljRn9IWNnD4hH9dKmiKc7FYOIkHtgX9JOlDSHyKuH0e8L0oii+CUkn4c&#xa;qYaLv2LZzKCeJOC8eHas859DS/BxSd+RtJqk1yU9G+9T48HNCLRFwCShLUS+&#xa;wAjkHoFmJGEaSXtHPPxbklaX9NcQ+mTfw3a9ryRi5E+NrI1oEqaV9CVJB0tC&#xa;Rb27JJziOI3OJemXQQL4/kBdzf+oHfALSZgtSAVMgaFVJL0bz19XEuPcNdIG&#xa;kyGQa0gpPZOk3eL5KwYZwG7OmC+StIukqaOIEf9z+y8C9SSB/0HU/hIRDhA8&#xa;/sZPAXwx7UAU75R0kqTxBtIItEPAJKEdQn7fCOQfgWYkYaE4vRM//1pMY9bQ&#xa;EGACQCW9iKTvSzpGEjZtTvOk+n1CEml/MQ0cIOkmSdNJ+oSk02r6o1uy+VE7&#xa;4Pw4qeIIhzBPzA0k7SHTHwl80BRMH7bzhCQ8KOkcScTuQw4uiWspVsSJGNJB&#xa;KWS0DSYJH+zHRiRh6yB5NwchA1uIwqtxGxgfFGYJsHUzAi0RMEnwBjECxUeg&#xa;GUlAG5AI14QkEBu/oyTC3hAgn5G0rSRy/kMSKDMMucCpEGHNdwSaBIoDofKH&#xa;NJxXp/ZHzb2kpJ0DSlTepP5FW4BPAiQBdfeoMEHMXEcSMD8g1BKSwL1floTZ&#xa;wySh+f5sRBKo0wBRwLz06zA/1PeAyYg9g5kJzZGbEWiKgEmCN4cRKD4CzUgC&#xa;KXg5fXN6xycA/wDMA5tJwheBk/w6UfwH0kCJYWzWaBv4bqAOAP4L+4egR7g3&#xa;IgloGOj7fkkjwyxB1j80B92QBDQS+Co8HEQBXwj+tibhw3u1EUnA9AMxZH0x&#xa;OzRre0pif2DKebn4HwHPoFcImCT0Cln3awT6h0Arn4QfhFMi5ACiwCmdEzsq&#xa;fJwL5wizAvn+8RvgZEkVQfp8UxJx9Ti5YWKARCQkgf74+2+hYSC0Dt+GtyXh&#xa;7wBJwCcBMwNOkpCItJoE7OWMEWKAFz4+EozDJKE9SeAK1oi1aBXeiMnnN5Ju&#xa;j2JPWUSz9G/H+0l9Q8AkoW9Q+0FGoGcItIpuQCuAMyBObJws8UOghPAKIbiJ&#xa;WrghMu9hioBI/FPSFyQtXhNT/0r4KmBa4B76wzyB9gB7N74N5D7AXEH8PU5y&#xa;EBDMDPgz4EuAViIhFZxiec7c4YCHBoP3GQN5GgjbY9w4QhIuifocJ0sLsw+2&#xa;USNNQieb7LOS9guNEf4nbkbgIwiYJHhTGIHiI5BFnoQ8oQAxwIERMwMhfAhD&#xa;wiDxk3DLjiTQ07KRYInIFPxO3IzAhxAwSfCGMALFR6BsJAEtBZoDQiP5HZs5&#xa;RCGLLJDFX+1sSQL5KjAVkW2T8FRMUG5G4H8ImCR4MxiB4iNQNpJQ/BXpzwyG&#xa;a25IRkkIK3kwMCMd35+h+ylFQcAkoSgr5XGWGQE+hyQVQr2OTwCOgskLR0Ls&#xa;/NjicUSrf3G6prAPVf2SEMQyY+W5ZatJSHpbNHJqkJETp1PXdPBOG0LAJMEb&#xa;wQgMHgFSJ5MZEec9UhyjZv9UzYv8BBAFog5erHmRtAhHRJz/TBIGv479HkFW&#xa;moREFqCRImw1yaFhotDvFc3h80wScrgoHlKlECDdMHkLSKFMSBoZD+sbIW3Y&#xa;6BM7PT/JivjNcOgjksAkoVLbZmiyWZIE+iMskgRLJN4iA6dLSFdvT31kxiYJ&#xa;3gRGYHAIIPypp0C+AfIQdOK9v3nkMiBxDvebJAxuHQf15KxJAvNAq7WdpOui&#xa;0Ba1N9wqjIBJQoUX31MfKAJ89ii8s0MkOKKQUdocAOQnoB4DMe4UbLLj4kCX&#xa;cmAP7wVJYDKk894q0jq7vsPAljcfDzZJyMc6eBTVQ4D4fzzKaah2kwI87ZAg&#xa;c+HPo34C6YtpJgntUCvn+70iCYSdYgIjVwVFuvCFcasoAiYJFV14T3vgCFD8&#xa;iLTFaASeSzkaPq9UZCQb4U8ibbJJQkrwSnhZr0gCUOEjg6aKPeeomRJunrRT&#xa;MklIi5SvMwLZIUDqYSosotIlhXHaRvU+fBgo/UsURNLQJJzoE19aGEtzHVEv&#xa;pL7uVaMsOPuKlM34zLhVEAGThAouuqc8cAQgCFdLOraDeHSKI1G5jy9tqjfW&#xa;hqdBEnBexDPdrToIUCWzlyQBJAmvpRoo2gSKQblVDAGThIotuKc7UAQmCT8E&#xa;iidt0sFIUP3uJml8EIv60DT7JHQAZoku7aW5IYEJ/4SvS9pQ0rYdmMZKBHO1&#xa;p2KSUO319+z7hwBFi5aXdEQ4gz0e5Xwp6Zu8GtUmmCzKLX9REiWUH2owZJOE&#xa;/q1jnp7UD5LAfDE7bBPRN2i/yArqVhEETBIqstCe5kAQ4PPFFyxlkUl7u1KY&#xa;CUh+xBftf+peb4YzIhoDXpRXRt27gaSLJV3ZZBYmCQNZ3oE/tF8kgYl+JojC&#xa;nZIujL05cAA8gN4jYJLQe4z9hOohwOdqxqist7CkmaO63l2SqMWAVmG6Bi9U&#xa;uySv4fV/QShIz0wdB8IeXzdJqN5majHjfpIETGWrSlpX0umSyJ/gqpwV2I4m&#xa;CRVYZE+xrwjMKunLkjAPoCngi/zWMBOgHWjW+Cx+TBJpmvFB4Ccvvpz/Lgnt&#xa;Q7NmTUJflzg3D+snSWDS7MtNg/RSLfKfuUHCA+kZAiYJPYPWHVcMAWoprBbZ&#xa;6p6QdI+kv0l6UtLbPcbCJKHHAOe0+36TBGBAK/bDIAhjggjnFB4PKwsETBKy&#xa;QNF9VBkByAGJkRaR9KCkK0J78HwHaZaHi59JwnARLOb9gyAJIEU47sFRXAw/&#xa;GVeLLOb+STVqk4RUMPkiI/AhBPjcYFbA43uJMCf8LkwCOCT2+0vTJKGaG3RQ&#xa;JGEiSWtL2j5CI6ka6VZSBEwSSrqwnlZPEODzMrukXSStIwl1K5noMC8Mspkk&#xa;DBL9wT17UCQhmTHJvdAq4KfQb2I8ONQr9mSThIotuKfbMQI4DuJAuECEIpIa&#xa;GaetcyLqoOMOe3DDcEkCURXTS6LoFO2ViKRo570ONoR4vtyBpzt5H3gRvcFP&#xa;nDvbPacHkJWiy0GTBEBEg3abpKMj30cpgPUkPkDAJMG7wQg0RgABhknh85Hy&#xa;GN+D64McpK3Y2C9sh0MSIAhkgNwyiBCC/1pJJ4f5pNUJkfDMzSX9qkV4Zi0G&#xa;9L14pBIeFxEgV4Vzp0+ine+WPJCEuaIi6UHhj+N17Hwdc32HSUKul8eDGwAC&#xa;CE20BgtKIsfB5JJIIPMHSfXpkAcwvIaPbEUS+IyjJSAvA1ke36vrYVpJu0u6&#xa;L77s0SaQp5/cDDfEaf8BSTNJmk0S9QKwSZPkCedMkuyQ/4G8ELNIoj8KD+HE&#xa;yfUQLU6amGQgFStIor+7owrmDJGch6yTbp0hkAeSwIjXlLSxpEObZATtbFa+&#xa;OlcImCTkajk8mAEiQI4CIhSWDmFH2OIdUdTmhQGOK82jW5EESA+n94UknRmZ&#xa;HGv7RKjvGiWBSfsMkYAgQQpoy0k6LEI7V5b0mzBLIOxJqEM4HKSCv8nvD6Ga&#xa;T9KLQao+G+FyCBDIFzbsC0LzAHmhEibjIsmUW2cI5IUkTBG1SEZKOiZHZrjO&#xa;0PTVDREwSfDGqDoCCMmlwhEROzmnY06+nKyxtRehNSMJCOgdQ+BzYkcLcGNo&#xa;RRKPdEjEYuGtzqmfE/3YsDWjEdhf0iEh+DG9/CU0E6iVKVdN5UkcOSEQpJ3G&#xa;mQ08l5R0SmgV6GO7MGuQbfL34YfAsyEZ4A0hc+sMgbyQBEaNFgmyCDn8dUrz&#xa;U2ez9dUDQcAkYSCw+6E5QACHOwourRGCEfU3p+BHC1jAphlJwARA5kdMApgH&#xa;IAhkb4Qs1CZ44nsAzQEnfUgTmgRI0jWS9glSQVRHkjIagXCvJDQs+wZJWEYS&#xa;J0kKAKF9wIcDjQE4HxDkAW0D/hyUyk7aDyTdL+nmHOyJog0hTyQBwocWjkgH&#xa;nBnxa3ErAQImCSVYRE+hIwRQjaIWJ4SRnAYXRXbEf/UhM2JHA+3g4uGYG/AT&#xa;AIuzItKA7wS0ApgniOJYNnwL0BxALtAmoA1A0OPfAAFAk4CAmEPSiUG+6kkC&#xa;pa7RMBDJYJLQweK2uDRPJIFh4uxLbQf2AvuA/eJWcARMEgq+gB5+Rwjgic+L&#xa;VMl4798exKDema+jTnNwcbvoBk55vJKiUbVDRuBjkkAzAGHCxIDQ58R/Qmgh&#xa;+BusLpe0UZCJ80NLcGBKkoAqGn8EtBDci1YCobJDeMWjuXDrDIG8kQRGj6Mv&#xa;+wXnVvwTCKd1KzACJgkFXjwPvSUC7G1C7nCOQ3NAdkRqKfDFhcArU2tHEtrN&#xa;FW0CfgcQANpxkg4PnwxIBCYH0u8SxcA1z0q6LiIX9pbEi8yTRDOQXGq0JELj&#xa;KG+NuQE/BTQJEIQvhSYBzQ0mkK+HiaJZhct2Y6/y+3kkCawHa49fAtUiKSsN&#xa;IXQrKAImCQVdOA+7KQKcYEh+xBcVPgfrRcjdqSHkygjdcElCvzBhXfBLeFPS&#xa;nyQxbqIpqJLphEqdr0JeSQIz4bMHMd9L0iOdT8135AUBk4S8rITHkQUCnIjn&#xa;lYQT3fwRVodqm7j8Mp9mikISWGN8FXg9J2mecFh07v/udn+eSQIzwrSHVglN&#xa;EuvtVkAETBIKuGge8kcQQOiQ+IjMgUnSIDL5PVSRE2qRSIK3b3YI5J0k4HNy&#xa;RPjC7Oey0tktfD97MknoJ9p+VpYI4G9AaB8nFULv2Ms43+FvUDX1pklCljur&#xa;OH3lnSSAJBEvpO0mNwYF0dwKhoBJQsEWzMPVpJI+F6FWOMqRPhiHunsqnLXP&#xa;JKGaH4wikARWhkymO0W0zB+ruVTFnbVJQnHXroojJ73wV8OWjeMbWfqIxX6p&#xa;ImaFZmtuklDFT4NUFJKAMzHVU3kRMkvCMreCIGCSUJCFqvgwCZv7XoTMnReZ&#xa;AAmhw0veXvH/jRLAWZNcBG7VQaAoJIEVwVdoe0nUSPmx/ROKs0lNEoqzVlUc&#xa;Kel9SfRDfD0Z3M4IUmBi8OHdYJJQxU9HcTQJyeoQeQRRuEXSb6u5ZMWbtUlC&#xa;8daszCPG32CaKDhE+BRli8+JhCxvlXniw5ybScIwASzo7UXSJCQQkycDkyFJ&#xa;t6iVYsKf881nkpDzBarI8CAD5DjA52CVqA2AWYGsfqQHdmuNgElCNXdIEUkC&#xa;5gaKelFx9JfhbExdELecImCSkNOFqciwsFMSxkhZYZIf8QVC5UA8oJ2mN/0m&#xa;MElIj1WZriwiSQB/KooS7UCSMwqLjS/TopRtLiYJZVvRHs5nwoQJhB6untUj&#xa;xo4dO/stt9wy+oUXXhg5atSom9dZZ53bp5566nca9H/SiBEjTBqaA2+SkNWm&#xa;LFY/RSUJoEzyMzQKHAooK21tQk73nklCThcmj8OaMGECteIHkRBlrhEjRjyV&#xa;R0xyMiaThJwsRJ+HUWSSAFSUKMf3aHeXle7zzungcSYJHYBV9Us7IQnjxo3T&#xa;Qw89pFVXXVUf+xhWhM7ae++9pxtuuEHTTDONpppqqrlGjRplkmBNQmebqPxX&#xa;F50k8MWA2QFTI2SBUuZuOUPAJCFnC5Ln4XRCEi699FLdc8892m677YYEfaft&#xa;//7v/3Tqqadqpplm4jXX6NGjTRJMEjrdRmW/vugkgfWhlPjPQpPAT7ecIWCS&#xa;kLMFyfNwIAnjxo0bs+++++qPf/yjNt98c+2///469thjNeOMM2qdddbRmDFj&#xa;9OKLL+q2227T7bffrvPOO09rrLGGDjzwQJ1wwglaYokldOihh+qdd97RFVdc&#xa;ITQO119/vfbaay9ts802euyxx3TAAQfomWee0eyzzz7U5yyzzGKS0Hpj2NyQ&#xa;5w9O78ZWBpIAOpQQ/52kYyRd2ju43HM3CJgkdINaRe+55ZZbNr333nvHjBw5&#xa;UksvvbSOOOIIrbDCCvrCF74wRABGjRqll156Seuuu65uvPFG3X///dphhx10&#xa;ySWXDBGHrbbaaogQPPnkk5p33nmHCMT2228/ZI7YbbfddPDBB+uOO+7Qyy+/&#xa;rI033liHH364llxySc0zzzwmCb0lCXwPkDqXF+29FPHrXIuzWeJwRh8TR6Et&#xa;/kcfrZzRuJ5XbR9pPln1z01zTz+vAQNi/+vnnmDbaV6AVjiVhSSwPl+OkMiN&#xa;7Z/Qz+3a/lkmCe0x8hWBwFlnnbXpVVddNQZBP/nkkw/9l9P/jjvuqLFjxw5p&#xa;FLbeemsttdRSuvDCC/9HEo466igdd9xx+vjHSYcgrbTSSkOvu+++W1tssYWm&#xa;nXZa7bLLLkP3Xn311Vp88cW18sor29yQfucNR5OA8JovnMfIcMnfJLo5XhKp&#xa;rxsJ+qkiBfQ1km6ThopuUY1zD0mU7Sa07ShJt0p6u8k0CH39VjzryZRTnV7S&#xa;WpLuj6JeKW/r22Wozn8u6VBJf695KhVLWaOXJd0oqVEET7NBzh0CFCypeVC7&#xa;HmUiCVNI2jJSr+8v6Y2+rZof1BIBkwRvkNQIXHDBBZs++eSTY9AcjB49Wk8/&#xa;/bSmmGIKTT/99MIHAQG/5ppravXVV9dll132P5Jw4oknDhGBzTbbTK+++qre&#xa;eOONoXsvv/zyD5GEbbfddkjTMM888wyZKNBOzDnnnDY3tF+hViSBzzjqXAT7&#xa;cw00BDiM4F3+kKSz4zqEPULuTEnvSvqspJmjkBb/J0021/w50uuSbncbScdK&#xa;ujuu50T4B0l/i/wXoyRNpv+mEuY1Tw1JeDqICv3+W9K4eC5lhhk77UFJkBjG&#xa;cZUkWOoLQVDmlPRYOL4Rg/9aCGKIyAxR44P7/xN5OXCYQ9i+GP3MJGlKSU9I&#xa;ejw0IlQYpQQ5jf8xZsYPCaKoGIKf9z8Z/fB83js8qh1CBuiXXCDkAeBFGC9j&#xa;QPDTmAvEAezJKArJIMwYLQxFy7gHorZs9HVlXf6QMpEE8GD9t40ES+w9sHIb&#xa;MAImCQNegCI9/qGHHtr0lltuGfPwww9r7rnn1lNPPTUUvUDjf8sss4zuvPNO&#xa;LbDAAnr++ed10UUXac8999QLL7yg0047TYsssoj+/e9/a9ZZZ9Vss802FL1Q&#xa;q0nYY4899Oijjw79//Of//yQ3wPmjDnnnNPmhtYbpRVJQP1NJsuFQujXJ65B&#xa;iO0q6ZVIbPNPSUtERjyEEvHsnPgRhhTUgkggICEWCNWDJG0U7/0mhDvPRH2c&#xa;CHzGx0ZB1c5pmAQ6fPd8MzQJCPLvS5o2NA88A20BdTsS4X2KpK0knRvCdFFJ&#xa;V4SgJd7+4CANCJmbg5gwLvqkD4QO5OLI0JYwjucDF4gSAoq/eSaYfEfS56Of&#xa;saFZYfz0SV8QkM0kzRjP5X+QJU7B2NXRxhAyDNngfogJ5IcXY/hrkCk8+o8I&#xa;ErRhaEpYA0gdJdBPkARZgiDRD/cnrWwkgXlRVpq9cJkk9p8jHgYsJEwSBrwA&#xa;BXk86uRFTjrppM3XXnvt76MBwMEQswJmgWuvvVbzzTffEHEgooHwxemmm25I&#xa;UwCJ+NznPqcrr7xSf/rTn4Y0A2uvvfbQNQ8++OCQaQHTBe9DCN5///0hh0Y0&#xa;DkQ2QDimnHLKuUaOHOnohuabpRlJ4MSaCCpOrZzqKa+NEE3UuQh8BNB68YWM&#xa;YEdAk+CGL2jMBnxZI2A3iPTZ50v6blTjRHNwWGgUyJRZ30i/e3RU/ntG0rfj&#xa;9EzefoQiwpXwN07iEADSci8m6fdxLWNF6NIPz8QDHiHOdfeEpgAtBb8j+KkL&#xa;AAlh7hAi/s+40YYwF0wBnPIvDoG8dAh0NCaME5KQaE8oRIRmgj5J+oM2Ag0E&#xa;Wow1gyCQNwRywLPAjvHxDNKJQ1h4PhoVSAeaD4T8SUHMHpG0SWgp7pP09XDg&#xa;Yx4HxHwgCRCGdQMj1i/xaygjSYBMfS32AOuB1sZtgAiYJAwQ/II8enlJK1J4&#xa;6bDDDptz99135wu3383JlLrTJCBYSViDwOREi3kAoYWArtUo4IfA+5Sb5lRP&#xa;HQ18DTi5IgRR+6L+5v9oD44LwYlPQkISEKI3NRgmGgxO15T65pn4FDAu+l87&#xa;hOJe4bT2lzi9ryaJ39l3V0u6XRKaA+5FAKP2h9QglNECIHxR9d8bJ1EqhuJn&#xa;wakfIc9JnFM591KmGDLC3JKx4FkPMfhFaCRQ8UMMSBeOuQOyhBkhIQloShaI&#xa;a8AEcgTpoCU+CZAESM2fYvz8npAEtB6YZ9DMIPzx22AuaHxODhMD5A4NCCQB&#xa;ez2fO0gB/ZWZJIAhexDiyDxPDVLZ7+8cPy8QMEnwVmiEAGwecsAXJV+QCJU7&#xa;HnnkkdEjR46E3fe7mSR0RxK4q525ATPCSpIuCiHOd8IakeCGcr4IPdT6+DPQ&#xa;+IlGABU/JIGTLSdmvtAhDwhbGnZ07Oy89pG0dQhDhDtaDQQrJIFn7BylwCEG&#xa;X4jU3whDnCF5Nqp5VP8IVE7q7Eneg9ggxDnxI/B5NmQAx0kIAsIVHwr6BAfU&#xa;/AeG5gCBzz04QyLg0RBAEtCKQGJ4FloMSAjPRlglJIH5QVTQIEBOMD2gfYGA&#xa;QUQSTQKCnj4gUrUkYb8gCfgeJCQBYrJUjI3fq0wSwBdih0kLMonmqhNnz35/&#xa;P5X6eSYJpV7ejieH/ZbTG17GOHWh5uUUxynyzQkTJuBYxRdzv9vDI0aMsG2y&#xa;OertohsgfQhMTrf1IXis+fZxcseswLX8zekWtThf1KjFqcqJQEOAYgrAHp9E&#xa;N3CqRtBDEhD0/L1FfLljRqAfKv6hauf/CFsEKs6NaCpQufNd9Ks4MSN8MRlw&#xa;ek5IAmTmh3GixwEQDQXzZm+eEX3MFUIec8A3QnBDIPYMYvHTFCQBjQHj51QP&#xa;YcAUg2aDuSUkAYwgUuCJ9gSzCVkAdzIAACAASURBVL9DBrolCeAG8YKw8Byc&#xa;QOkbTQJEBULFOnBdEuFQRnNDssvZD18KzQ8mILB1GwACJgkDAD2HjyQ2EQGA&#xa;Spgv4F+Haho1M6cdt3wj0I4ktBo93wFEB/wkVPj8jVBHQOLIh+oXAY8GAHPF&#xa;biF80R6wZ/iJ8OcUzEkd/wBs6pyWMRVwAsQZDcdDTu0IPcgA2oQkBBJVO/4C&#xa;zAPNBKp4HClxVExIAuMihe/l8XwcBnk2Jgac3CAUzANNA6d8+kKDQT+QCHwS&#xa;MDVAGHAqbKZJOCQICxoUNAiYJng2JgkiEfYOQsRJF0KBIINA4cCJOQHcIDCQ&#xa;KwhGWk0CmhycPSEHaD8gCERpgBeaCvDlVA3pSlopScKECRMgg4e8//77E40f&#xa;P/5jU0wxxVsTTzxx2u+hv44YMQIc3TJCwCQhIyAL2A3OiJwuOQXhZY4jG8IA&#xa;NXCnCV8KOP1SDXk4JKEoQPBdBdlIVPJlKy+MXwg+CDiS8rmEjODwiJPlyvF/&#xa;CFOt2r2UJOGtt97aacKECUdOOumkmnhirEQdtTtHjBhBdI5bRgiYJGQEZEG6&#xa;SWLmEzs0Tm2EW6HybeSZXpBpVX6YVSAJLDJCdIWIoydSo0wNB0scGvGfoKFZ&#xa;wQ8C7QhOm2gR0OzUtlKShDPOOGOnxx9//Egio0jjPtFESbLKVMttkpAKpvQX&#xa;mSSkx6rIV0LHUc9SbY0vHF5kuUPFiVOiW7ERqApJKPYqZT/60pKERx555Mj5&#xa;559fn/jEJ4ZCq/l9/Pjxuu+++4ZysJCcLcKjde+99w7lYiHseuGFF75zqqmm&#xa;siYhw71mkpAhmDntCtspceecUMgABzkg5h0PcDsD5nTROhyWSUKHgJXk8tKS&#xa;hLFjxx452WSTDdWCwexAUbjXX39d559//lAJeqrEfuUrXxmqMEsNmHfffXco&#xa;x8p6661351prrWWSkOEGN0nIEMycdYWHOGFoOFERj40zGWFlOD45nChnizXM&#xa;4ZgkDBPAgt5eWpJw9913H0l9l4UWWkhkYqXy7CyzzDKkMbjmmmt08803DyVq&#xa;m2GGGXTuuecOmSXI6DrJJJPcueyyy5okZLihTRIyBDMnXRG+Rfw3JIEvEcwJ&#xa;aA343Q6JOVmkjIdhkpAxoAXprrQkIfFJIJPr7rvvrp133nmoOuxZZ501lKWV&#xa;zK7UkCHjK5VjKTBH2fnVV1997BZbbEEWzSRfR0GWMr/DNEnI79p0MjJ8DigM&#xa;Q5QC5gVi0AmhwrRQ7+zUSb++thgImCQUY52yHmVlSMJOO+2kv//977r11luH&#xa;qsWeeeaZQ5qFGWecUbPPPrvmmGOOIbPD/ffff9eJJ55I5lBrSzPabSYJGQE5&#xa;oG5w+10wCqIQB35J+BtQVY8cB43K/A5oqH5sDxEwSeghuDnuujIkAU3CW2+9&#xa;pR122AGTwlABODQJFJU7+uijh+q9jBo1CrPEnUsuuSTptP3dl9HGNUnICMgB&#xa;dIMzIpnISOZCAhnS25J9zh+OASzGgB9pkjDgBRjQ40tJEt57772dRowYceSI&#xa;Ef8VTxMmTFDyO86JtORvfvI+L9pEE03kEMiMN6NJQsaA9rA7kh9RDY50saSc&#xa;xfeA0ryU1S1bYpkewljKrk0SSrmsbSdVSpIwYcIEMmuSvbObZpLQDWot7jFJ&#xa;yBjQHnRH9jXy5S8c5XEhCuTYJxVs2lSlPRiWu8wRAiYJOVqMPg6lrCSBktnU&#xa;D0nVxo0bN++UU075nznnnJPEcONGjBhBBUm3jBAwScgIyB50Qz0Fkh+R3wC/&#xa;A/RppGi9IXK69+CR7rKgCJgkFHThhjnsUpKELjDZI6K5dnVZ6S7Qa3OLSUL2&#xa;mA63R4rgQAwoUkIaWrx0IQaEMlIIx80I1CNgklDNPWGS8N91pwgZhbAoQIaZ&#xa;wqHeGX4eTBIyBHOYXVFP4YuSRocZgdBF6ilQp57iS25GoBkCJgnV3BsmCR+s&#xa;O9FdB0TFTyqFumWEgElCRkAOoxtqKqwpidheyjTDhiljS7lYp00eBrAVutUk&#xa;oUKLXTNVk4QPrzuHrB9Iosz3X6u5JbKftUlC9pim7RGfg29LWlHSU5HfAK0B&#xa;GgRnC0uLoq8DAZOEau4Dk4QPr/vkkraSRMZFIiScSC6Dz4VJQgYgdtgFmoPv&#xa;SvqOpOsknSPpvghjdLRCh2D68iEETBKquRFMEj667kSCkT/mCUnHVnNbZDtr&#xa;k4Rs8WzUGxiTNpm68KRN3jYSHx0t6ZHeP95PqAACJgkVWOQGUzRJaLzuOH5/&#xa;X9KFkq51grnhfThMEoaHX6u7SZk8raR5wueAzIhEKJAACfOCMyP2Dvuq9dwt&#xa;SZhM0qckoabFI5zomVda5N/g+2Lq2Luk/eYeCDB9EImDD82L4WjbbH9zPX0Q&#xa;tUN10rRtmnge2rZJ2jwjbZ9Fv84kofEKsk83lLSCpOOiwJ2/b7vc7SYJXQLX&#xa;5jaKLH1G0nJBEjAnkDaZgktuRiBrBLohCQjqDSStLWm6ENp/kXRWlBVvFEYG&#xa;mfhq+MxcKuntcLjdIhJ+QTLwLL9M0gtNiDBRPBuR9CaKkKUJV/tY+O88FDVJ&#xa;5otnVD0k2CSh+SeJUPLdYr8cE+Q3689dJfozSchumUmbPFLSQvFik+Jhi7rr&#xa;8ewe456MwEcQaEUS+IzjBwMReCwEPKf5dSVtJ+l7sT8hDRAATuq/k/SWpEUj&#xa;kRdag2sk4Wy7jSQ0ECeGFmFfSUdFVA7x6hAPtBGQBZ4DUZ45iMdtMY6EJBDi&#xa;S6IwPjM463IPET5o3+aOWd4l6fNR5RQtHGPA2ReNxa0VzzpqktD6ywAyiXmX&#xa;JHR/cLRYd9+cJgnd4VZ7F6ccyjTzxcUpCUzvkMQXItUY3YxArxFoRRIQ1NT7&#xa;QBCfGQ6yENgDJV0cJJbxsW8huaj1OeWPkrReCGHMCQhr9vSWYVrAKWwpSZ+Q&#xa;9NMQ8kkfmNkelbRGaBogDVz3e0loA9aPZ7wmiRS8mCn47NwbGjdUxYtIQrMB&#xa;yf5WpCHnXsx4PPfToU14tdfg5rh/k4T2i7OsJDRdx0u6vf3lvqIeAZOE7vcE&#xa;NRWoxLhKnNSeCZ+Du0PV2n3PvtMIdIZAM5JAWm9UrokmAcF9vaSxknaQdHD4&#xa;x3BqJxwXMxlfpJzotw6BTgExHME2jax2SwQhuCq8yJPr60c8k6S9QisBuWCM&#xa;CP7TglCTB4QEOBCE00PoE7Z2RmgXMG2cKonP2Q8lHR5aBp7DCZFywLdU3IRn&#xa;ktD+cwJJ3kzSOkFwMYO5dYCASUIHYNVculKoazl1ofLkSxeTAqcaO8h0h6nv&#xa;6h6BZiQBjQFCHaHKyRuCAFHAaRAzwSGSHg7tAVVFuZYCYmgYEMyYGzjtI6gR&#xa;5tyDKQDTQEISOP2f32Do+OSQSx/hzmcDkwFEA20GTrz453DKg0Dgw4AZAeKC&#xa;iQ6CwfMuiOcRMrxfTbVT5kLiHBKPVTlCyCQh3WeG72n2LoQBIurWAQImCR2A&#xa;FVEK2HAhAoTX3BwFRTrx0u7sib7aCLRHoFNzA5EICF3Iba2AR42PdgwbLqcv&#xa;BDjZP2k4KWI2wNERkoCNF3MCiWvQGPA+DbMGGgkieKjG96uIWadvSpyfHCQB&#xa;/wg0FJAMqpriM4HWg88Uvg34RFwkabbIK3KoScJHNoJJQvvPRnIF+wufFvYt&#xa;2iy3lAiYJLQHilPU6qFaxakKhy1OUXxROvlRe/x8Re8RaBfdgB2fV20mT9T1&#xa;JPMiTIzQXLQO+4SA5tS1WpzoEc6c+PFFOCy0C/RDdENiEuBLF3+D2cP+y+ke&#xa;wY/fA32PkbR3hDyeG6pf/B4gE5ASngeJIKUuhIOxJSQBnx/u5dkvB5Q4O0Iw&#xa;cKZ8rvfw5vYJJgmdLc1c4dtCsiUIsFsKBEwSGoOE9zZfmlRixOkFTcGv44SV&#xa;nJhSwOtLjEBfEGhHEpoNgtPVKUECMCvwOw6JhBZCAPYM7/B/hQDHtAZ5QEOA&#xa;4L8izBNJH9h70RxAGhDykAb6Q9uAxoL+6Bf7MD4JEAhMDD+KzxiOkpgm0FZw&#xa;P/1jGiGi4oEImSSKaPkwkSRhmH0BOYcPMUnobFEgyjjKEsUDIa0ywUyNnEnC&#xa;h6HCdkW4FmFbRCsQw43zFKxzfGpUfaER6C8C3ZKE/o6y+6dBNjDzkRgHzQKa&#xa;DQgG0Q5VbiYJna8+kTeERfLdTv4EV9htg6FJwn8BwlGK8C9UnqgycUDE5wDH&#xa;KBdb6vyD6Dv6i0DZSQJootXDmRGNBz4L5FiournPJKG7zxnf9RAFfHL4nvcB&#xa;sAWOVSYJqJ5mibAsnK2IBSevAR7gnFLcjEBREKgCSSjKWvRznCYJ3aFNWu9V&#xa;I0INsxlhvGkyf3b3tILfVUWSADlAfYk5gYQxnEYIAyMBEp7cVT+dFHxLV3L4&#xa;JgmVXHaZJHS/7piWN4mD4gmSyHPj1gCBqpEE1Ew4ReE9jeMU4VfEZaNBwEHK&#xa;zQgUEQGThCKu2vDHbJIwPAzxP8MpFgdGknjZP6HCJIFEMXi0LhMe0sRik1SG&#xa;/O/2ORjeB813Dx4Bk4TBr8EgRmCSMHzU0Sb/WNJJEbZrs0MdpmXXJLAB8Iom&#xa;2xs54Klwh1MiBWucGXH4HzD3kA8ETBLysQ79HoVJwvARx/xMSC4aha9F+O/w&#xa;ey1RD2UkCSz6vJG9DXJARTvCGNEauBmBMiJgklDGVW0/J5OE9hilvWIPSWic&#xa;qWHiVoNAWUgCCVbIOU81RirGkY2NwjSEtzzrFTcCJUfAJKHkC9xkeiYJ2a47&#xa;Cb8Ie/+ly0p/AGzRSQKJVZIwxtFBDqgoR35uaw6y/QC5t/wiYJKQ37Xp5chM&#xa;ErJFl2qoEAXqmpDt0y1qyK8ctdyLCAi5DajISAlasiJS4tbFlrJZSfLk31BT&#xa;uCebXt1LLxAgYocKi1RvdKsOAlTZ5LvPLTsEKFpG6mYqpFY9o+cQqmgSKLRC&#xa;tbUiNTQIhK/ghEhlOrfsESCPBA49z2fftXvMGAHKN28UmQgz7trd5RgBQrhx&#xa;xnbLDgFqi0C4KXV+tPMn/JckUMzlE9lh3JeeqMw4oySqMkIU3LJH4E8RNuok&#xa;I9lj6x6NgBHILwIcQHcJkzWF/ZAzlW1FJQmVXbA+TtwkoY9g+1FGwAjkBoGJ&#xa;o44PkQ4XREny3Ayu3wMxSeg34sV5nklCcdbKIzUCRiBbBCYLcysJ+Ei0hFm+&#xa;ks0koZLLnmrSJgmpYPJFRsAIlBQBzNo7SaIg1LGSXirpPFtOyyShiquebs4m&#xa;Celw8lVGwAiUF4G5woGRvDuYHihXXqlmklCp5e5osiYJHcHli42AESgpAl+W&#xa;9IPIn0DF4Eq1MpMESoF+VtL0saJ/i2pf2Jpgh/+MGg6dLjiRIHi/UkWyzMVA&#xa;TBI63Rm+3ggYgbIi8F1Jy0raq2ph4WUlCRCEVSQtL4mcClNKejAcUBDs20Vp&#xa;0G6SZeDIsqGkfUqeaMgkoaxfd56XETACnSJA/oSfSnpP0r5dHjA7fWYuri8j&#xa;SWBO1HD4pqSrJN0adR1+IunO+B/OKHdLmk3SY5Kui3wLs0vaMlYGTQMpOtkU&#xa;S0n6tKR/SSITIRnu2CjkaqDS5P2Sns7FimY3CJOE7LB0T0bACBQfgTnDPwHf&#xa;hDHFn066GZSVJCDQdwi2d5wkcpzPLwk2+FwI+CfjfSpF/l4S2cu2ljQ+CAOm&#xa;imskPRAerpCDG4M0rCfpGEkrRH9/KWGtCJOEdJ8hX2UEjEB1EKB4IImWTpB0&#xa;SxWmXUaSwLpBBhDyCHPMA/wN+zte0kySdpd0tSQE4fckPRXahDkkPRoLv37c&#xa;d1PUGr8yahksGZUmMV9wH0TirRJuFpOEEi6qp2QEjMCwEEBmIhsoqra/pEeG&#xa;1VsBbi4rSQB65oZvAo6L+CRQQpoyoLdL2j5ynj8e9cPRLmCawERBXXHuJRUn&#xa;ubshCRvH+zg/YnrADHGEpBcknSfp3QKsdadDNEnoFDFfbwSMQBUQwHkdGTKV&#xa;pAPL7p9QRpJASs3Fwlfg3DAfsHFhf/gPkD0rcVxEE0DqTUjCs5J2i/cwOawe&#xa;To+QBIrnQCIwSSwdNQ1IrrFukIi7SvjJMEko4aJ6SkbACGSCwEhJPwqfN+RM&#xa;aVsZSQKLRV1wTv8IdQT41JL2lITJ4OYmJAHHQ7QIOCROKun7cS8kgWiGWpLA&#xa;3z+WtJykWSWRaOONku0Sk4SSLainYwSMQKYI8P3/DUmnS7qjrCHxZSUJ7AR8&#xa;EohiWDS2xS8knSNpOklfk3R5aBDWinSbYyVtESYHoiCuDbKAeYLNwE/sTwuG&#xa;wyIOkZgyiJ0lr/d9mW6/wXdmkjD4NfAIjIARyC8ChNfj7E5U3C/DQX5Cfofb&#xa;3cjKTBK6Q8R3JQiYJHgvGAEjYARaIwBBwOxAzp2zJL1ZNsBMEsq2otnNxyQh&#xa;OyzdkxEwAuVFYOEwT18UGuhSZeI1SSjvxh3uzEwShoug7zcCRqAqCKwjaTNJ&#xa;e5etrLRJQlW2cOfzNEnoHDPfYQSMQDURwD9hx0jaR+6d0lSLNEmo5oZOM2uT&#xa;hDQo+RojYASMwH8RwCn+8HBwp85DKZpJQimWsSeTMEnoCazu1AgYgRIjQAI/&#xa;svv+StKlZZhnQhIoVORmBGoRIC85qUefMSxGwAgYASOQGoHRkgiRJ5/Ow6nv&#xa;yumFkASKH72T0/F5WINDgIRS1KkgG6WbETACRsAIpENgMklbSZpH0n5FT7Rn&#xa;c0O6Ra/iVTY3VHHVPWcjYASyQOCTkdn3n1FW+j9ZdDqIPkwSBoF6MZ5pklCM&#xa;dfIojYARyCcClJUmIyPZfa8oasSDSUI+N1ceRmWSkIdV8BiMgBEoKgKERX5V&#xa;0hKSKAhI+v7CNZOEwi1Z3wZsktA3qP0gI2AESorADJK+K4maDqdFnaBCTdUk&#xa;oVDL1dfBmiT0FW4/zAgYgZIiMIek3ST9WdJvixYoYJJQ0l2ZwbRMEjIA0V0Y&#xa;ASNQeQSQs1+SdICkXSX9tUiImCQUabX6O1aThP7i7acZASNQXgQmkvQdSdR4&#xa;IH9CYVozksD/Z5JEasn1Jb0t6RxJP46ZfTvYEAl33stothTGgGVNEi9yN9wn&#xa;aedQ06SprEVsP9ffIen+SAZ0r6Q/Smp0/6diflwPu6u/ZnJJX4v5kz2rdGVA&#xa;W6ydSUJGG9vdGAEjYAQCgaPC3LCXpHeLgEozkkBqyZ9IujNiPPHShBjMKulU&#xa;SRtEJqnHY8JPxU+ENPGh5LCmwMWzkUhiFkm8x+tFSSSb4DV1/M3/cOyYWNJy&#xa;klaJjFUkeuKe2SRNJelVScSdQkz4P/1OK+m1yAw4vSTA/4uk2yStKelJSY9K&#xa;eisSR0EEuIc+xktirgh/5siYeA59vxCkgXkztnMl/St+L8LaDneMJgnDRdD3&#xa;GwEjYAQ+jAAyj5DI30g6uwhEoRlJIE3zniFgzwjh/Nmwq9wqaT1JU0jifxCC&#xa;IyTdJOlzkraQNF8IU0DgBH6oJE7laCSul7SUJNQv3M8J/hfh9VlPEiAE2HI2&#xa;CaIA6filpIckjYqsVp8J4U+ICePm/bsl/VrSspIgDpCbKYP43CNpeUkkt4Dk&#xa;bCwJgUhMK3XBIQpkyuJ/10jaPogEpIn/FYL9ZfDJNEnIAER3YQSMgBGoQ4CQ&#xa;SOQJ2RhxZsx1a0YSENYrhQ0FQc1J/KUQmgj3nSQ9HyEdEIbFJe0bghumdKOk&#xa;FSUtJunkcNhAK4EWYmlJ35L0+xDmmAeulXRdA00CpIJ+8QjFZEC9bjxF6Qe7&#xa;Did7SAiaDQgK5pAdaswNEB2IAKEn3IvWIDGZsDCQh1qSAHnhfsgLZAfisajN&#xa;Dbnewx6cETACRqBICCB3MWNzAP55yKjcjr+d4yI2e2I8IQ0I/7skoUn4piRO&#xa;5Ah3hOg3JO0Rp/a1JM0lafYgEoCAV+f5QR4gCV+MvzEFkOMatT8ai3pNAtoK&#xa;tAxPB0nBlIHq/3hJm0qaWdIT4T/B+LaVtGUNSYCM4JsAAWFcCwaDSxakniSg&#xa;7Tg6xg+poJqXSUJut68HZgSMgBEoJALIq21Cw43MweSey9aMJGDrXyhO79jr&#xa;0R6gFVhd0sWhZcBMgOMiWgRIwkHhS4AZAM3DSEn0f0yQhFMkjQ1NAmYASAM+&#xa;BzuGRuD0JiQB8vE3Sa+EjwD3oEH4ehCGxwJZChHhh/DDJo6LeJW2Iwn4LYwx&#xa;SRhC1OaGXH5kPSgjYARKgACycf442OJDh2keP77ctWYkgSxRRBr8IYgCjnxr&#xa;S6IE5kmSVquJbkhIAn4HqO5xLrww1Puc1PERQJNQSxJQtXBKp4wmdhkiJyAc&#xa;9ZoE/AYwGVwWPg9oA/BBgGCsG8/CbIFpZN5wBjFJyGabmSRkg6N7MQJGwAg0&#xa;QgC5in8cB9gz43CbO6SakQQ0B3OGCYFIA5z1EBo/C69/HAnrNQn7hKMgPgSE&#xa;L1LQAqfGEyPbVC1J2EjSAvGCXHB6R2NRTxKeiWv2D7X/A5IIlcSEgHMhzyQa&#xa;ArJBRiveRzOBxuPwIBRJCGSiScDJkt9fD5NJrU9CvSbhvPCzwGwBOcKRMZds&#xa;rwc7yyShB6C6SyNgBIxADQI4yiNPOeTibI+mPFetnU8CQptraPgCJDkRIBH8&#xa;zYv3eRFayE/eS65PfvL/5Fp8EtA+oG3ARECfvJe02v6S/yXjqB0D7zX6P8+v&#xa;HU+jcdaOP/k9GWMyluT/PIffmV/tOHO1kD0YjElCD0B1l0bACBiBOgSIwOMA&#xa;Tl4gDtW5KivdjiRkvZoIWxwB8XfAlIFvgVs+ETBJyOe6eFRGwAiUDwHC7zG9&#xa;Hxm+dbk5kPabJJRvacs7I5OE8q6tZ2YEjED+ECCdAKH9kAUi/3LRTBJysQy5&#xa;HIRJQi6XxYMyAkagxAjsHv4J+Ni9nId5miTkYRXyOQaThHyui0dlBIxAeREg&#xa;spA8QIRF4mSfpmZRT9EwSegpvIXu3CSh0MvnwRsBI1BQBMifcKAkcgdR52Gg&#xa;zSRhoPDn+uEmCbleHg/OCBiBEiOwTCQGRJtAuoGBNZOEgUGf+webJOR+iTxA&#xa;I9AXBMjAS3p9Yvnd+oMA4f3kAiICkASFg2gUStzSJGEQ0BfjmSYJxVgnj9II&#xa;9BoB1N+/ino5vX6W+88PAiQtnNEkIT8LkreRmCTkbUU8HiMwGASosEuhPTLZ&#xa;ulUHgX9L+gQk4bUo3lSdqXumaRAgJTXpq0mN7WYEjEB1ETBJqOba/48kUIvg&#xa;5mpi4Fm3QICqn1T0NEnwNjEC1UbAJKGa6/8/kjD0SzUx8KxbIGBzg7eHETAC&#xa;IGCSUM19YJJQzXVPPWuThNRQ+UIjUGoETBJKvbxNJ2eSUM11Tz1rk4TUUPlC&#xa;I1BqBEwSSr28JgnVXN7hz9okYfgYugcjUAYEikYSppG0tqS3JF0haXwXizC1&#xa;pC9JeknS2Jr0yB+TtImkayQ90UW/RbrFmoQirdYAxmqSMADQ/UgjkEMEikQS&#xa;JgqH629Jek7S+V06X5PMCKLwrqQ3ataE/meMBEdv53CtshySSUKWaJawL5OE&#xa;Ei6qp2QEukCgSCRhCknLSZpTEhoFUhrfEsL+k5LOkDSHpEskPSrpdkkbSPqt&#xa;pIckfVnSkpLGSFpN0ouSZpO0lKR1JX1V0iqSLpQ0lySed0FkR/ympJ9JWkQS&#xa;ZZ/JVPmFKNgEhkkZ6BO6WINB3GKSMAjUC/RMk4QCLZaHagR6iECRSAKnfJI+&#xa;kS1weknThmkAbcABkv4p6VxJO0qaVdKxIfjPlvSgpBUlLS3pFElrSnohSAUE&#xa;AwJA2z80FHNLwvxAf5+R9G1Jh0j6YlRw/Iqk2SVtFqSDFMt7SvpBmDF6uGSZ&#xa;dG2SkAmM5e3EJKG8a+uZGYFOECgKSSA5IGPdOHL/IMA5yZ8p6XVJp0raT9K9&#xa;kkaHWeLWlCQB/4azJE2SgiQsEZoECMECkhaXdJmkCZL2CaKAr0Pem0lC3ldo&#xa;wOMzSRjwAvjxRiAnCBSFJEwmaaNwLHwvsEO4o96/R9IxQRL+3oIkoD2AWNRr&#xa;Ep4OJ0ie0UiTQOK5b0j6SWQwxunx8OjLJCEnG9nDyBYBk4Rs8XRvRqCoCBSF&#xa;JGBq2D2E+fUB9lqSKFCFFgBTwOXxPn4ImAh+L2lzSaSh/4uknUJbkIYkfFbS&#xa;DJJOCz8FtBP7Vp0koGpZWNKqYetJNv1Tks6R9EqTT8FMkpaNxYHZYd/BGQSn&#xa;kJGS7pD0ZlE/QSUdt0lCSRfW0zICHSJQFJKAmn/LGt8DpskJH8GPFoHMwjge&#xa;okafLuTVSVGjZlFJ90maMpwc25EEfBjoD+0Bcuw/kj4lae+qk4TJAxQ8Pe8K&#xa;YFgIQMK2A1CNGozrR5L2kPROqHoIMbkzGNizkm7ocOP68t4iYJLQW3zduxEo&#xa;CgJFIQkIaRwF75ZETSIafgmo+x8JOUXkAlEHkATeI6qBhrMhIY2YIjApPBaO&#xa;jRxqPx6HWJweCYFcMN7HpIFpAg0G108aZg0cJjkYPxDP4W/uTUjL3+JZeV//&#xa;VD4JxIl+P2w6OH4kJAGPUUJJXq6bJddvGkSCt34u6SZJP47kFkdLulrSQpIQ&#xa;Qo/HosL+joiKlHkHrirjM0moykp7nkagNQJFIQlp1xFBnzguEr74fNobK3Zd&#xa;KpIA28KOs1eoZlqRBNjXypJQ+WDnwYzA74SYEJe6TaiBiF/F1MA1mBhYsF0l&#xa;XReahYqtQ26na5KQ26XxwIxAXxEoG0kAPGQZJ3+yMSZOjn0FtQAPa0kS5gtH&#xa;DvwPCCshdOPhEPQI+QND8Cfz/FU4jNRmoKIPsl6dKGmqMDdwH4kmIBSEhJDN&#xa;ioadCLKA84hbPhAwScjHOngURmDQCJSRJAwa0yI8P3NNAmSCmFASVpCMAp8D&#xa;/BTwRUhIwsGh5oEcoEkwScjvVjFJyO/aeGRGoJ8ImCT0E+38PCsVScDHYOtI&#xa;K9nOJwGvUDQCRC5gYoAwELOKV2lCEogvRZPAtX+ocS6hYAYZsS7KDz6VH4lJ&#xa;QuW3gAEwAkMImCRUcyOkIgn10CQ+CXiIUhkriWZAI/DH0CCQ+/rP4d3J5iKh&#xa;BFqGgySdHKYLTBbkzn4t7EJEPZALm1SabvlAwCQhH+vgnAeu/QAAIABJREFU&#xa;URiBQSNgkjDoFRjM87siCeRJIOSDAhfEiCaNcJPj4o91IiSEwhmEjmBywEEx&#xa;iSeFCEAyCAMhRIQNyD1EPjhXwmA2Q6OnmiTkZy08EiMwSATwL6M+AS+36iCw&#xa;s6SZOeEPsYU+zhunRUgCmapIlblSaCWo1uWWHwRMEvKzFh6JERgkAuS5IWMh&#xa;mQXdqoMAdS4+OQiSAMT4OpBrAXMFiSiejCRL1YE//zM1Scj/GnmERqAfCNjc&#xa;0A+U8/eMrswN+ZuGR9QrBEwSeoWs+zUCxULAJKFY65XVaE0SskKypP2YJJR0&#xa;YT0tI9AhAiYJHQJWkstNEkqykL2ahklCr5B1v0agWAiYJBRrvbIarUlCVkiW&#xa;tB+ThJIurKdlBDpEwCShQ8BKcrlJQkkWslfTMEnoFbLu1wgUCwGThGKtV1aj&#xa;NUnICsmS9mOSUNKF9bSMQIcINCMJRKktJum2jEofk8qfUs9TSHpG0rySnopq&#xa;w9QPqm+Ueiaz76MRyt9oWp+OhH1c40JOnS28SUJneFXuapOEyi25J2wEGiLQ&#xa;jCTME5l0t4sqwcOFD3KwRoTFXyVpM0mXRuK99xt0Trp/cu6Qb+fFJg//iqRp&#xa;JJ0t6a3hDrBi95skVGzBO52uSUKniPl6I1BOBNKQBEouk4l3fUmPRHZGtAEb&#xa;hJaBrLr/iv+TbXdmSd+XNFek6Icg8P/dJU0v6dSo8/OYpKUkPRtZfUnlT9Zf&#xa;tA5UJqYMAJoMsvuSmI+fkJcbJD0oiayBZIykAvG15Vyens3KJKFn0JajY5OE&#xa;cqyjZ2EEhotAO5JApd+RktYNQT93JMf7bQhpkvbdHKaJtyWdENdSDBBBjqCn&#xa;/s9Rkr4W2XipEowmgUR7kIe141rIA4n4JoqaQNtKOlPSdJJOl7RX3A9RuFjS&#xa;MpJmkfRrSRAOt/QImCSkx6qSV5okVHLZPWkj8BEE2pGEXSWtGdV9fxMn+Q2j&#xa;aN/3JN0baZ2XjSKAl0laPU77d0laOV4/kbRijblh+7gG0wNaAu7nGogGDeGP&#xa;qSMhCRAEiAW+EhAW6gfNYXND1zvaJKFr6Kpxo0lCNdbZszQC7RBoRxJ2kwQZ&#xa;2Dc0AmgO7pOEkP+qpN9FZeClJX1R0p2Slpd0QRAITvuYJepJAgL/D5LuDoKA&#xa;OaMVSdgoNAloKDBvUKnYJKHd6jZ/3yShe+wqcadJQiWW2ZM0Am0RSEMSVg3H&#xa;QEwMVAumkB/Ohj8OknBHaBEgCVdL4vrrggBgbkAT0YgkJI6LaBHakQS0F3tT&#xa;lMgkoe2aprmga5KALWimUPWwGV4PWw82pWYNpxQWDkcWNg6OKbPGRnpD0uNh&#xa;w8JbFVXR83Fdmom0u4YKl4TVTF5zIaEwONE818FzGBdOMYyNcSa/14fm4FDD&#xa;3LgOr1rKaL/abpB179PHnJL+KYn+mQM44xzUqIEvz8Kpp5EHL2uW2PHoh/7Y&#xa;AO+0GJdJQoeL5suNQEkRaEcS8EmgUuRakq4PZ0S+v6gciXMimoRakkCkAeYA&#xa;Qhj5niECge85CMUK0deVoV24JHwSEpJwSNyHtoLv9FqfhEYk4VOSRoW/wtMl&#xa;XZ9eTasrkoCwwSGERV0khPxLks4JxxQEYqPGBmIj7RkCFtUSjBLhxkBQO10j&#xa;aYnYJD+PCpFZTJ4QGVRhs0laXNK4ICuosS7sIL4Xmxjj+1moyvC4PaKBoMXz&#xa;djVJY+JDA1mADXfScMI5OtR3fHjwGObDR6hPo8bcWA/Uco0+CFOG4w8fSux7&#xa;2ANxBuL6RvHHPMMkoZMV87VGoLwINCMJRCh8UxJ+CBy8cC7kbw6DJ8V37Tfi&#xa;u+TvIfyRBWgQOGgReYCg5z0OngdH3gP6+WscGPEr4BBJPoSFIxKC71gOqA+E&#xa;duGm6A9zBsSEAxHf1eRG4DrMHjgxXlHeJerJzFKRBBYQYY7AwFkEYcMmQIhR&#xa;W/yFUCHtEQtBmAobCsH8ZjidvCJpU0nfknRksMAFJZ0o6R8h3KhbjfMLjijY&#xa;kngeJaTZIA+FnYswFoQbRARBDzNFQ0AIDd60hLfAXjkpfz5+snkgMTROz2yg&#xa;AyT9JQgODBPigDaDjct8aCTx4Fkvx1iYAw4yXHto4ABp+HNgQQgOYT/g88Ng&#xa;zghkSBEb9bggPZAHPlj3S2JsaF/AcnTMAaGNHQ3MYczcx1i5D60CpArMbolx&#xa;filw4IPA3IkVRouBVgG80EicH5gzLsYE+UAVuFywa/Bq1EwSevK5c6dGoHAI&#xa;ZJ1xke8hhDiCn+8ivrP4/naIYr62RiqSgABDWOE1iqBESKHSQWghcG+MUBQE&#xa;KgIdMwKnXk6n/A4DREuA5gByAUnA3IAzC6drvFxhoPSHcEQ4bxFxr2TK4pmc&#xa;yGk7hNoeNROqfmxf8wdJQYBeFNcg8PkbNdOtklBboYKvJQk8CyIBY2U8EBKE&#xa;PF6ymBW2DgHLsyAObF7GnJAEWPCOoYlAGEOOwAMnGQgSIT58ALCPQRIgVLBf&#xa;mPB/gtwgvMEMOxv9JuM4N4T8QdEPBATsmBdY8YE9NhyDIBe8z1zBEJIByYJI&#xa;QXDwFOY5f5S0TZCEX8W6QBrABs9jk4R8fTg9GiOQJwR6QRI49XNYhCSgIUVT&#xa;2spknSc8qjKWliQBoYN5AKG9UCwi8aoIP+zeCDYcTTipsrB4tXLCRUBxDzGp&#xa;nPK/E6fhSaM/NA78jvBCQCNssYsfFs/gdIvGgdM6hASzBvGyCH1O/QhVhP3X&#xa;I5HGDGFGOCWE6C9CjY5QxmMWIoBJAfVXLUngJA9xYZ5oNCAkeNJCYhDm2MUQ&#xa;0vhRQHogGxATUpBibmD+kBnsYcyTEB7UWYuG+eTyEPQbh28Cmo9NQijj2YsX&#xa;bmInQx2HZgCtxOZBIjAJ8BxwhXDxLN5H+4CKDu0Cz0iykKHCS0gC4wUnSBPr&#xa;gRmCeTFmGDwkBK0QY4NMgK9JQlU+9p6nEegcgaxJQucj8B2DQKAlSUBAc0JG&#xa;/c+p+vhw9ONUjHqa9z8Tp26EJEIVQYTg54SNQyAqcE6+2IN4GKQDkoATH+wR&#xa;EwFCnmcg4CAGqMwRuPSVkAHsSGTWQt2PFgOSQX9cw/34SSAQEXj4CKANQEgi&#xa;HFHHI0xJolFLEhDanKyZGz4DjBWyw9+QBBxoIBaQIJwFEdj0z3v8znxxpIHc&#xa;MA88dcnwRUpRSACsGJV/QhKeCHsbphE0CWgr8AmA1KClgVihKWA+aFhIKkLf&#xa;CUmAVNA/p340AJhg0AI0IgmMjfcgEswfbBuRBNYK2x0aEJOEQXwE/UwjUAwE&#xa;TBKKsU5Zj7IrcwMmBE77mBEQcjRO2AjOM0JgcvpGaCN0eWEy4KQOSSDEBc0E&#xa;RAMVOA07PgQB50eENUIOx0UEJhoDSAJEBG9YnsPzOBXjtMI1EBEEKz8Rhpgw&#xa;EJKME+dC1O2NSAInbjQZickjGSsZvzAbkL2Lxv/RniBwMQvUOy7iyAlJwPES&#xa;9T9OOAj0epKA5y+aAAqW0DCB4KyDJoHxJv+HREB8MAskJCFxXCQ7WTuSwLzB&#xa;DMcfk4SsPzbuzwhUDwGThOqtOTNORRLqocGREcHNqZwTOwQAGzzC+dvhRIhD&#xa;H2YJtAJbhk8D/UASEHoIbtT2eL+iccBOjzMdEQgIzUYkgZSfnIhxbsSEgKDk&#xa;BAxpqSUJnMDRDCBgIRWc2DE9IORrNQkIUIgGY8EzF63IVuFDAHEgOcg+4avA&#xa;fCESaD8SkkBcbxLdkJAEYn8T7Qhj49kQDkItcQJkzDwXU8JO4bAIGcLXAYdD&#xa;NB78n98JGfqppP1jfs1IAqYIXrXmhnYk4bwgKD8IB0rSpTZqdlys5heDZ20E&#xa;6hEwSajmnuiKJAAVpgaiFYh/5SSPKYDfUamjFcCPANMAvgYU1UD1juD9ZWgg&#xa;+IlPAgIRr1a0Ejgl4ieATR/PfggETpOoxHGOhExAAHiP0EVSeXLixhzAc4hM&#xa;QPWO0GVinM5xNiRqAqdCGid7+uD5aEHQSOAQiImBSAwIDL4BCF2ey3U8l5/4&#xa;NUAAIBw4TKLKx/SAPwNkCA0C96IdgBhhRsDuzzgwFWC+SMgLzjpoUSANmF4g&#xa;QBASMpAxN7QtzAGCQGgjTooQI4Q25h7IGD9x9qEYCoQI8gY5QNMAaUOTgaYF&#xa;MgahwUcE8wj+HpAEyArjTMxIJgnV/BLwrI1AGgRMEtKgVL5ruiYJeYUC8oJP&#xa;Ak6MkIhBNQQx/gVoH/LorYtGBK0MZAizRLMa69YkDGoH+blGIF8ImCTkaz36&#xa;NZrSkQQcGtEMYPdHqzGohoYCbQq+EGgo8tZwViT8CAfLJIeENQl5WyWPxwjk&#xa;BwGThPysRT9HUjqS0E/wqvAsaxKqsMqeoxFoj4BJQnuMyniFSUIZVzXDOZkk&#xa;ZAimuzICBUbAJKHAizeMoZskDAO8KtxqklCFVfYcjUB7BEwS2mNUxitMEsq4&#xa;qhnOySQhQzDdlREoMAImCQVevGEM3SRhGOBV4VaThCqssudoBNojYJLQHqMy&#xa;XmGSUMZVzXBOJgkZgumujECBEWhGEsgMS0g1OWGalZyvnTbXk1WXFPeNrqeg&#xa;Hu/zXn34OM8hF07t/7me/9NfkqK+Hmb64zqucesMAZOEzvCq3NUmCZVbck/Y&#xa;CDREoBlJINsshfBInkf23VYNQU1mWMKvSUNPorr6RtI9itJBEsg6W0sISDhH&#xa;EjxS8CeN6r3kpeF/pN5v1AhHJ5He2ZHszkucHgGThPRYVfJKk4RKLrsnbQQ+&#xa;gkA7kkASO2r2UBSP2jVkwUXgk0GXvDFUEKYoHb+TpZcsuGTLJSU/eVu4hxM/&#xa;1X6pcUMK/ftCO8BPqtceLonCfCfHvWglXo46O9zH/WTFJV8OfVILhzwwpPun&#xa;2i+Zax/x2naEgElCR3BV72KThOqtuWdsBBoh0IokkBaeejRU3aVw36mRqp+i&#xa;d2gF0CCQVI5U+zSq/F4QVYapi8P7aBUgDRAB0tiTTh4Bj9Dn2n9IOiZS+JO2&#xa;njT0XP+0JGrQUEeINP7cTxp/Ut1DEsgou0lU2SU1Pun73dIjYJKQHqtKXmmS&#xa;UMll96SNQEeaBEjBnkEMUP1TowazwHfCZECNGU7zqPypp0MBP4Q1qeHJ+kod&#xa;G+rRzBtCnj6oWYPAp55NQlB2bGBumCVMHQlJoM4O5gU0FhTF4zlU9LW5obtN&#xa;bZLQHW6VucskoTJL7YkagZYItNIkIMzxSaDgHpoDHAgp2rd31IVBu0B1X3wG&#xa;8AtYJoQ9vgkXS7o3/rdBEIM1QkvAtVzDC1NBGpJA4cGdw6TBWMaaJAxrZ5sk&#xa;DAu+8t9sklD+NfYMjUAaBNr5JEAScDKsJQkbSroj/AZwRPxX+BagSaCKLmTh&#xa;8gYkYZUax0Wq/nZCEngm5AT/CJOENCvb+hqThOFjWOoeTBJKvbyenBFIjUCn&#xa;JIHvjm2CBNwav+NYyO+UtKdCLuYAHAnxZ9irxifBJCH1svT8QpOEnkNc7AeY&#xa;JBR7/Tx6I5AVAp2SBMIX5wufhM8EWdhC0uzhuHiepCklnRHahV9LIpwS00Uz&#xa;krCxJJwPt457iWLAn2GrGsfFRpoEnByJiDhS0vFZAVKRfkwSKrLQ3U7TJKFb&#xa;5HyfESgXAllnXCR8kRBJQhuJbtgyzBEnlAu2ws/GJKHwS9jbCZgk9BZf924E&#xa;ioJA1iSBPAibS1o3iAIOjORaIL+CW34QMEnIz1rkciQmCblcFg/KCPQdgaxJ&#xa;Qt8n4Ad2hYBJQlewVecmk4TqrLVnagRaIWCSUM390TVJwGHkS5JWDLsSKTVP&#xa;j6xaraDEu5XNhi2K0Jj3UuBOEgwyeZGak5CZ2yW9mOI+XzJ8BEwSho+hezAC&#xa;ZUDAJKEMq9j5HLoiCQj6L0sifpW0lyTQIAUm/z8q/m42FJxVyJA1haQnWlTt&#xa;Su4n7SZEhOxZN0haKnJwk2TDFb06X/BO7zBJ6BQxX28EyomASUI517XdrFKR&#xa;hKkjxpUQFTJnoQUgFzYC/yxJr0Z+bdJhksObXNvEvZJYg5CVmyJZxmaRfxvH&#xa;FLJvvRAhLwuE8P9FJMD4RuTqJs83zi1rSrolCoAQyvIjSRdGCtB2E/T7w0PA&#xa;JGF4+PluI1AWBEwSyrKSnc0jFUmgaMYhkeyCUqBoDBDcZLUixvWUKL9J1S3M&#xa;EKtLeiC8VL8aGgBMC5T5RANALOysUe2LeNjzo8/TJO0elcIo8EGcLXG0aB6u&#xa;kcRgaeT7JpsWz3brLQImCb3F170bgaIgYJJQlJXKdpwtSQLFNs6RtFBkwsJ/&#xa;AN8D4lkRHgh7CAJmB+JcMUFQ1AMCQewrmbQorMF7kAaKdhwc5oOEJJBk49wg&#xa;CftJ2iU0FBQGuU3S9DHf62v8HfBPGB1JMRwuk+2GqO/NJKG3+Lp3I1AUBEwS&#xa;irJS2Y6zK00CfgKQAHwC3o7xfDpiXPeIcp2U+cS58I3QBJCzm02GOQISkZAE&#xa;SMBFUaGrniSQ23suSeMjWxelRmkmCdlugla9mST0D2s/yQjkGQGThDyvTu/G&#xa;look4IOA9gAfAXwSMD8g6Kn/fXOQhRmDJJD28rV4n2GjDfiCpFGhlSBCIS1J&#xa;QEDhk4B5A00CDpK0JSQtKYnMXPg9uPUOAZOE3mHrno1AkRAwSSjSamU31lQk&#xa;of5xCO1l40RPB5gh0Agk9b8xL+DYSAQDYZEIdEIXfxKah7QkgZzc9E3+b3wS&#xa;cHSk4eeAmYEMXW69RcAkobf4uncjUBQETBKKslLZjrMrksAQcFBE+OMbQHgi&#xa;5gScEl+SNJmkBeOav4ZfAuYFIhSIiEDok/sAjQOOifgrELVA+dAr4xpMCoRI&#xa;YmIgbSf9oIVAs0AxjzGSnskWC/fWAAGTBG8LI2AEQMAkoZr7oGuS0C+4IBUQ&#xa;BswVEIi1Iiri2pSJmPo1zrI+xyShrCvreRmBzhAwSegMr7JcnXuSANBoGT4V&#xa;2gqiJf6RIrNjWRZo0PMwSRj0Cvj5RiAfCJgk5GMd+j2KQpCEfoPi532AgEmC&#xa;d4MRMALDMTfML2l9SSTLS6LhMEmvF6H1N0Y1yPMiFw6h8pdKerwJ7BwYN5D0&#xa;h8j4W38Z0XdE12HyxgROdJxb9wiYJHSPXSXuNEmoxDJ7kkagLQLdahIwGePD&#xa;lhCERDtMBl4EOoRg18h7Q9j89pLOlDSuyYjoD+d5Itveb3ANfS4XWXyPblMm&#xa;oO2kfcFQEsNPEI0w9IsBMQJ1CJgkeEsYASPQTJOARoDMu4SoE+7OCR8y8bOI&#xa;gMM8/GhoEsihM3u8RyQc/6dYHyH2O0TyPVLufy0IxYbx/gGSXpZ0kCSEPpFt&#xa;3w1NAuHwi0exQXLqoLF4OJL8UU/oMEmnRkZgr2J3CJgkdIdbZe4ySajMUnui&#xa;RqAlAs00CYS0I/yp40PoO8QBUwAqf4Q7CfUwISTJ8p6M9/eMaDiEeK0mAVJA&#xa;Ir2rJf0wotouqBH0c9aQhFXDZ426QoyDAoD0BXngd2sShr+pTRKGj2GpezBJ&#xa;KPXyenJGIDUCzUgC/98u8uAgqMlnQzZeivgRuo76H9PC4VGb58Soz0NoO1oE&#xa;qvvWkoSdo4AfKf6/HQ7rRLa9FSOtJQmUBMBEQdZexvG9eIZJQuplbXuhSUJb&#xa;iKp9gUlCtdffszcCCQLNSAK5bjA5IMi55qEIWSdDLk6JmLE3j4y8FPkjNT/X&#xa;NCMJiU8CeXLakQRMDeTLoeowjoomCdnvV5OE7DEtVY8mCaVaTk/GCHSNQCvH&#xa;RYQzUQf3h2/BxlHsD+KAbwAkATMC6f3xGbhJ0g9CO0AV4EaOiyYJXS9Vpjea&#xa;JGQKZ/k6M0ko35p6RkagGwRakYSlw/nwkPBBwOkQvwJS63PChyTgg0BF4S3C&#xa;MRGH+XsivT4Oi2TupR4PjotEN9SSBGoE4RR5eURKJI6LjTQJEI6FJW0tCQKC&#xa;lgHzh1t3CJgkdIdbZe4ySajMUnuiRqAlAq1IAlWB55b0WPQwQxQDpCAgwn+W&#xa;yHuAU+Nnoq7PK5GaHyFEtAP1fx6Jn6T5xwdh5ohmoB+iF56OsEf6owTA1EE4&#xa;6Ct5DmPgd8aD4+SzTUIlvdzpEDBJSIdTZa8ySajs0nviRuBDCHSbJ8EwFhsB&#xa;k4Rir1/PR2+S0HOI/QAjUAgETBIKsUyZD9IkIXNIy9WhSUK51tOzMQLdImCS&#xa;0C1yxb7PJKHY69fz0Zsk9BxiP8AIFAIBk4RCLFPmgzRJyBzScnVoklCu9fRs&#xa;jEC3CJgkdItcse8zSSj2+vV89CYJPYfYDzAChUDAJKEQy5T5IE0SMoe0XB2a&#xa;JJRrPT0bI9AtAiYJ3SJX7PtMEoq9fj0fvUlCzyH2A4xAIRAwSSjEMmU+SJOE&#xa;zCEtV4cmCeVaT8/GCHSLgElCt8gV+76uScIUkWqTUp4zSrolimvQYatGxq2V&#xa;okLY2ZLeTYEfWbdIyUmlL+qTXxy5v6lhTsUxypK26meSSPX5qqRrIkNX/WOZ&#xa;A5XKyDX+pqSvSzqyybUphlyaS0wSSrOUnogRGBYCJgnDgq+wN6ciCeTYRtAi&#xa;iCdE/e5vSPq0JMp+UoVro6glTqGP1yS9F5BwH7+/H31wP40++Z2fE0U5UfJr&#xa;1z6LvyEVX410nH8OYU+6TuqLJ33RX9IH93MfY+V/vHg+P2mMY9L4nRKm/P1O&#xa;pA2l4AiEY6wkCpRAFiAkVW4mCVVefc/dCHyAACThPh+cKrclUAhMhGAdYgtN&#xa;pj+dJAp37CWJHNnUAP+mpGkloQ0gNzY5tA+L0/4iUQ8cYY3gvUTS7XH/vSHc&#xa;Z5X0zyjEQX3wZSWNCWFOgY/Lov44z/5yaADmk3R6kIADQ7gzdoT9ApJWCGF/&#xa;hqQfS/q8pC/E8ylLyhwfjGpk1CBfLUqWMi8KhVAYhPfRjrwdP38Z+b8rtzNi&#xa;wiYJVV15z9sIfBgBaxKquSNaahKoE04FL0qAoiE4WRKFN8ZJmlcSdb8R9JT9&#xa;5HRP1S9O92sHcUC9v0qUDOV0vktU+aISWEISIACnxn0XStom+qekKBW/KNQx&#xa;jaRro2AI5OSTMZZ1QvMASaDqF3XKuRbBzngfjzVFc0Bd8oQkMI/9Y1xcR0EQ&#xa;qoxRnQxCQ2UyNA8QHKqY/bWae2No1iYJFV58T90I1CBgklDN7dCSJOALgKCk&#xa;atdioYZ/KoT638OvAMHK+whn7P0I+qWieteToZ2gQthDktaTdGgQh4QkoEX4&#xa;bVQF2y+IBAL6O5IwLzAGTAf0jfq/GUlAJXJeaBV+EdqCZiThYEnbSYLEQDQw&#xa;OdSTBDQU+CWgJcH3oarNJKGqK+95GwFrErwHwsrQqbkBDcM8oYZHk0BDmP8s&#xa;TA6c7JeJuuK8z7X8b3wQgjVrNAmUB8UhEZLRiCSgxYAkUBO8FUnAr+DS8Jdo&#xa;RxIwL0AS6NckofXHwCTBXxNGwAiAgDUJ1dwHqRwXcR5cQtKdYavHJ4FoA3wO&#xa;EMz/CfPDz0MTgDD/ShADHAHRQmDzP0bSPySlJQm3hq8DJofr2pgbsiYJaDO2&#xa;knRHzLua28Pmhqquu+dtBOoRMEmo5p5IRRLqoUGAYibYUNLo8BvAofGcOPFD&#xa;KjALYGbA0XDJMEHg/EhLSxLwB8AksHSYG4iiaGZuqCcJB8Xz2diYC9av8Ulo&#xa;pEm4WtKPJOEoiTmC/tA2HBd+GNXcHiYJVV13z9sImCR4D4BAVySBGzFRIFAx&#xa;FxDmSDQAQhzhCokg2oGfCHnIAj4DL8V9aCK4B00EZog34lpyFeAYSSNyAvME&#xa;jfBK/AvwUcDUwb0MnH6SseAwST+MC8dGnkXfPJuQTLQRSbjjDJKeD2fJpA/u&#xa;5f+M8zlJa0X45e/ivqpuF5sbqrrynrcR+DAC1iRUc0d0TRL6CddsYb7AwRFH&#xa;wl43fCg2j7BPTCdVbiYJVV59z90IfICASUI1d0MhSEI1lyYfszZJyMc6eBRG&#xa;YNAImCQMegUG83yThMHgXpinmiQUZqk8UCPQUwRMEnoKb247N0nI7dLkY2Am&#xa;CflYB4/CCAwagW5IAqZiMt+S4ZaQc/Ls4NiOjxj+Z7PET/zRuA6fMhr+avih&#xa;YV7Gx4xQevzGahvXcj8+aviRcU9twx8NPzN82wix53lE4rl1hoBJQmd4Ve5q&#xa;k4TKLbknbAQaItApScBxnRo/K0YBwCQr72cljZRERBnp8smBQ+ZdriUzLw3B&#xa;TtHAuyPlPllvE6f2ZHA4ppPnBid3auzUFhfkPUjH/JLukrRoTf2fNEUFvQU+&#xa;QMAkwbuhJQImCd4gRsAIgEA7kkC0G3V7yG/DqZ7fd4oossODGPwt+mlEEqgd&#xa;RM2d2kb0HPV3SJWPZoC6OvRNLSBC21eNysD8j7B8Mv6Sz4exrB4p9ykXQDFC&#xa;Qu8J00er4ZYeAZOE9FhV8kqThEouuydtBD6CQDuSMLekb0UNHUwDCOYdQytA&#xa;tWDy0JwZYfNpSQJ9oGGg4N8aUSOI8Ha0BzdGSQBy9aBxINU/NXwgJry/cpCC&#xa;l8MksXWE0UMa3NIjYJKQHqtKXmmSUMll96SNQGqSgPkAEoCfwUzhP0AivOPj&#xa;NI8fAgKduj2tSALCnVw7NMwLJN8jbw0kAdPE9yP1/6NBNNAeLC9pVFQQ5m+y&#xa;+u4dmgTMDVQWJncPDdPG5JLO99p2hIBJQkdwVe9ik4TqrblnbAQaIdBMk4Aj&#xa;Is6Fc0S6/lMimR1Ogt8NZ8U0JAFzAZV8aSTnQwNAn5AEzAgk0jsi6gQdJemM&#xa;ICGYFqj/Q0I97odcUHSQe0+qcWjE/IAj41le3o4QMEnoCK7qXWySUL0194yN&#xa;QCckIbm21tzwuqRJo/5NWk1CI5+ExNxA5lsqD0MEiFTYuMa3IHFcZByQBNLq&#xa;Ey0xX2gukqgHk4Tu9rVJQne4VeYuk4TKLLUnagRaItDOJ6H+5ixJwm2Rnh+z&#xa;BuYD6gGNCz+EepKA8yNmhRUknRaFAYm02ELSgxE14aVOj4BJQnqsKnmlSUIl&#xa;l92TNgIfQaBTkkD+AvwAqJODjwGOg4Q7ogkgfwIVdpcNZ0IiGKj3g1CvbZ+S&#xa;tIqkGyI6AgKAUyTXYWJYKswQ+EDQcI48NYgE9XcIqbwvTBSbhqmBnAtu6REw&#xa;SUjl96HhAAAImElEQVSPVSWvNEmo5LJ70kZg2CRhkBCixVgs/BLIt7BE+CYQ&#xa;Npk4Mg5yfEV6tklCkVZrAGM1SRgA6H6kEcghAp1qEgY9BXwc8GlAyJGZ8eFw&#xa;qBz0uIr2fJOEoq1Yn8drktBnwP04I5BTBIpGEnIKY+GGZZJQuCXr74BNEvqL&#xa;t59mBPKKgElCXlemt+MySegtvoXv3SSh8EvoCRiBTBAwScgExsJ1YpJQuCXr&#xa;74BNEvqLt59mBPKKgElCXlemt+MySegtvoXv3SSh8EvoCRiBTBCgouIvI19B&#xa;Jh26k0IgQDKs6anLPcQWOhgy95AOkzSXxMOSgpO82++16YP7ppJEKc9XI4NW&#xa;u8fSP7G1r0VN8nbXp30/zVgIpSF+l/mRKrRRIy0pcyJ+t1l4DSlFSfDxZs1c&#xa;kv46HQdZx8iTDh7t8E6LRbPrTBKGi6DvNwLlQIACSsdKolaDW3UQINfEpp2S&#xa;BLJXzRWpMZeJIhzPSTpZEpmxWtXrRugSswohoWhHu9rejG0BSUtHzfAsy3wi&#xa;3BkLBOS6JgJ+nkgIwvv3NtkXMGxKljIfsoDVN/Ci2Ai5yR8B8EgXyrUIfMax&#xa;eGBybZNxkPJ0/SiPCgZrS7pG0hMpiVa3W9okoVvkfJ8RMAJGoCQItCMJnIAR&#xa;ppTY5PRLXW9KglLrm+xWL0j6kqRdJe0ZpIFKXe9HhS4E2b+iLnhy+uVkzemc&#xa;PsizPXsQDE7kCNQHIksX1yEcyZpFOVAapUHnjWpjN0dZUO57PMZHcQ9O9GTW&#xa;In/3olGulDrnZP+CFCwY2bhmriE53Md7CGSKi5CEg4xe35Z0haTfx+m9dtnB&#xa;hjrl5BK/WNKlMacVI3f505LIBoY2As3L+EgPSjU0xrdQ1D9vNA6I2CuSmCNp&#xa;SDeLjGUXBKkg9pffm2k4stieJglZoOg+jIARMAIFRqAdSUC4UVlrrxBalO/c&#xa;SBKCkIpaCNMkBedDkWrzphDU3wnB9ue4n4xXaBFQXSEkvyjp2Uh6QapOqoXx&#xa;k3ZCEABIA6dmBPxKcWqnaAf9kK4TAsJJ/Lfx+w+DcCDoNwxSg/BnbOeGqQPN&#xa;BKSB/N6YTBCGEJwnQ7tBmlA0I5CAzSVdHnNFaNc2CBNYUKkMEsF4Nog+34p5&#xa;ni0JjHH84TkQCkgC40YTA36Mg0pq/L6HJMgFc1wkKpmhgSH3OGSFe2mUTgX/&#xa;f/Rw75kk9BBcd20EjIARKAICzUgCJ9Vtouwmp/G7ouwnpUCxra8RRAGTAa+f&#xa;hCBHFc6JGeGPkEO4/y1yd/8iTAcJSaBfSn4yhuMk7RBZsRDMEAqEO4Ka39FM&#xa;YBOjIhikYbUQvJzeydN9WZz0GfPRod3AVEGNcTQVqPkhHmg5aJAd5lBLEqg/&#xa;DsGBaCDkr+zQ3MCcITXMFwzIV05FNJw/6klCYm5gHFQoqyUJEAsIB+NAU8Dc&#xa;EnPDPZIwYfAe5ItXr5pJQq+Qdb9GwAgYgYIg0IwkoOpH4EEWOMVSm5vTL5W0&#xa;cDrkFI0QpgoXp39MEj8LUoGaH00BwowT/2OhBTg8hHtCElCzozLHXLCfpF3i&#xa;HjQQFAChJjhCkhM0tntOzghTBC8EArME5ASzAKdvxsx40RhQy5yCH/wfR0le&#xa;O4VQxRegniRwwj8v/Aowp9B/pyQBAkI/mwS5YTy/7pAkcD9EiLkxDvCtJwls&#xa;rR9Iuj/MEb3aaiYJvULW/RoBI2AECoJAp+YG/AjwQcDXIHHmQ8hDEI4PX4Pl&#xa;Q12Oin9UkAicGjmlY8NPSAJ9Uc0LgVxPEm6PUz4CHcdBSALaBsgKJ3Mafg04&#xa;8nFKXzkICWYHHAQ5eeMseEloOlDfo9XghN9Ik4CZILm3W5LAPDA/QHwgUusE&#xa;sepEk8C4L4xc4yYJBfkQeZhGwAgYgbIi0I4kMG98DpJIBNT/2OARiJgKsNPj&#xa;WIcpgRM0J3+c7LCjo75Hw4Cz4UEhONOSBBz+OIlDJPD6R+juEyYF6op/NTQd&#xa;RwVZ+GloITBZ4Li4XJQZ5SSPuQFtyBE1EQj1moQsSAJaDsqjojFBc4F5BIfG&#xa;rEkChIl54iuBNqFXzZqEXiHrfo2AETACBUEgDUmonwoCFnU+dnFs+tjX8SPA&#xa;rIBgXy9+cjLH72Dh8BOAOOB8iJmBUz2mCEwJeP/vLOmAEK6o3LG1Y97AXo9P&#xa;An3zXAT9V8JHYvfQZjAHHPkgEufEYBkH/dAvpAFNBWGKaBfwFYBUQGBwzCRy&#xa;A/KC1oEoCbQBaEcQwrvFNWhJ8H3AlIGGBA0HDVMLTp38/StJ3wsSRVQCGgHM&#xa;HwhyKpJhQgEbzAn4WGAygFDgeEmUB9oTxoF5AdMF44CM4XfBOLjmwCBDYIBm&#xa;BdNLr5pJQq+Qdb9GwAgYgYIg0A1J6NfU0GDgXEjSIBz5ElNB7fMhHoREoppH&#xa;s9EoV0EW48W/AgFOKCZ+DoNqaHK+FiQCEw5ko1fNJKFXyLpfI2AEjEBBEMgz&#xa;SQBCTvrLRsgiYY31Dcc+CAKhgDga4nvQi4YWg7wG5GwgumNQDc0EUSOYY3qp&#xa;RWB+JgmDWmU/1wgYASOQEwTyThJyAlMlh2GSUMll96SNgBEwAh8gYJLg3dAM&#xa;AZME7w0jYASMQMURMEmo+AZoMX2TBO8NI2AEjEDFETBJqPgGMEnwBjACRsAI&#xa;GIFmCJgkeG/Y3OA9YASMgBEwAg0RMEnwxjBJ8B4wAkbACBgBkwTvgY4QsE9C&#xa;R3D5YiNgBIxA+RCwJqF8a5rVjEwSskLS/RgBI2AECoqASUJBF64PwzZJ6API&#xa;foQRMAJGIM8ImCTkeXUGOzaThMHi76cbASNgBAaOACSBAkQUJHIzArUILBbl&#xa;rinG5WYEjIARMAIVRACSsHSUZK7g9D3lFghQVZMKmVTRdDMCRsAIGIEKIgBJ&#xa;cDMCRsAIGAEjYASMwEcQMEnwpjACRsAIGAEjYAQaImCS4I1hBIyAETACRsAI&#xa;NETg/wFGgkKyShkQdgAAAABJRU5ErkJggg==&#xa;;" parent="WIyWlLk6GJQsqaUBKTNV-1" vertex="1">
          <mxGeometry x="130" y="80" width="520" height="328" as="geometry" />
        </mxCell>
      </root>
    </mxGraphModel>
  </diagram>
</mxfile>
